<svg width="60" height="60" viewBox="0 0 60 60" fill="none" xmlns="http://www.w3.org/2000/svg">
<path d="M46.3265 13.6719H13.6734C11.4285 13.6719 9.61221 15.5086 9.61221 17.7535L9.5918 42.2433C9.5918 44.4882 11.4285 46.3249 13.6734 46.3249H46.3265C48.5714 46.3249 50.4081 44.4882 50.4081 42.2433V17.7535C50.4081 15.5086 48.5714 13.6719 46.3265 13.6719ZM45.5102 22.3453L31.0816 31.3658C30.4285 31.7739 29.5714 31.7739 28.9183 31.3658L14.4898 22.3453C14.2851 22.2305 14.1059 22.0753 13.963 21.8891C13.8201 21.703 13.7164 21.4898 13.6583 21.2624C13.6001 21.0351 13.5887 20.7983 13.6248 20.5664C13.6608 20.3345 13.7435 20.1123 13.8679 19.9133C13.9923 19.7143 14.1557 19.5426 14.3484 19.4086C14.541 19.2746 14.7589 19.1811 14.9887 19.1337C15.2186 19.0863 15.4556 19.0861 15.6856 19.133C15.9155 19.1799 16.1336 19.273 16.3265 19.4066L30 27.9576L43.6734 19.4066C43.8664 19.273 44.0844 19.1799 44.3143 19.133C44.5443 19.0861 44.7813 19.0863 45.0112 19.1337C45.241 19.1811 45.4589 19.2746 45.6515 19.4086C45.8442 19.5426 46.0077 19.7143 46.132 19.9133C46.2564 20.1123 46.3391 20.3345 46.3752 20.5664C46.4112 20.7983 46.3998 21.0351 46.3416 21.2624C46.2835 21.4898 46.1798 21.703 46.0369 21.8891C45.894 22.0753 45.7148 22.2305 45.5102 22.3453V22.3453Z" fill="#131DFF"/>
</svg>
