<svg width="60" height="60" viewBox="0 0 60 60" fill="none" xmlns="http://www.w3.org/2000/svg">
<rect x="9" y="9" width="42" height="42" rx="4" fill="#131DFF"/>
<mask id="path-2-inside-1_2074_1876" fill="white">
<path d="M43.0909 24.1803C43.8624 24.1803 44.6024 24.4867 45.1479 25.0323C45.6935 25.5779 46 26.3178 46 27.0893V32.9075C46 33.6791 45.6935 34.419 45.1479 34.9646C44.6024 35.5101 43.8624 35.8166 43.0909 35.8166H41.5462C41.1916 38.6287 39.8229 41.2147 37.6971 43.0893C35.5712 44.964 32.8343 45.9984 30 45.9984V43.0893C32.3146 43.0893 34.5344 42.1699 36.1711 40.5332C37.8078 38.8965 38.7273 36.6767 38.7273 34.3621V25.6348C38.7273 23.3202 37.8078 21.1004 36.1711 19.4637C34.5344 17.827 32.3146 16.9075 30 16.9075C27.6854 16.9075 25.4656 17.827 23.8289 19.4637C22.1922 21.1004 21.2727 23.3202 21.2727 25.6348V35.8166H16.9091C16.1376 35.8166 15.3976 35.5101 14.8521 34.9646C14.3065 34.419 14 33.6791 14 32.9075V27.0893C14 26.3178 14.3065 25.5779 14.8521 25.0323C15.3976 24.4867 16.1376 24.1803 16.9091 24.1803H18.4538C18.8088 21.3685 20.1776 18.7828 22.3034 16.9085C24.4292 15.0342 27.1659 14 30 14C32.8341 14 35.5708 15.0342 37.6966 16.9085C39.8224 18.7828 41.1912 21.3685 41.5462 24.1803H43.0909ZM23.8327 35.5039L25.3745 33.037C26.7608 33.9054 28.3642 34.3647 30 34.3621C31.6358 34.3647 33.2392 33.9054 34.6255 33.037L36.1673 35.5039C34.3189 36.6619 32.1812 37.2745 30 37.2712C27.8188 37.2745 25.6811 36.6619 23.8327 35.5039Z"/>
</mask>
<path d="M41.5462 35.8166V25.8166H32.728L31.6248 34.5655L41.5462 35.8166ZM30 45.9984H20V55.9986L30.0002 55.9984L30 45.9984ZM30 43.0893V33.0893H20V43.0893H30ZM30 16.9075L30 6.90753L30 16.9075ZM21.2727 25.6348H11.2727H21.2727ZM21.2727 35.8166V45.8166H31.2727V35.8166H21.2727ZM14 32.9075H4H14ZM16.9091 24.1803V34.1803V24.1803ZM18.4538 24.1803V34.1803H27.2708L28.3751 25.4327L18.4538 24.1803ZM30 14L30 24L30 14ZM41.5462 24.1803L31.6249 25.4327L32.7292 34.1803H41.5462V24.1803ZM23.8327 35.5039L15.3527 30.2039L10.0586 38.6746L18.5235 43.9781L23.8327 35.5039ZM25.3745 33.037L30.6832 24.5624L22.2 19.2483L16.8946 27.737L25.3745 33.037ZM30 34.3621L30.0162 24.3621L30 24.3621L29.9838 24.3621L30 34.3621ZM34.6255 33.037L43.1054 27.737L37.8 19.2483L29.3168 24.5624L34.6255 33.037ZM36.1673 35.5039L41.4765 43.9781L49.9415 38.6746L44.6473 30.2039L36.1673 35.5039ZM30 37.2712L30.0154 27.2712L30 27.2711L29.9846 27.2712L30 37.2712ZM43.0909 34.1803C41.2103 34.1803 39.4067 33.4332 38.0769 32.1034L52.219 17.9612C49.7981 15.5403 46.5146 14.1803 43.0909 14.1803V34.1803ZM38.0769 32.1034C36.7471 30.7736 36 28.97 36 27.0893H56C56 23.6656 54.6399 20.3822 52.219 17.9612L38.0769 32.1034ZM36 27.0893V32.9075H56V27.0893H36ZM36 32.9075C36 31.0269 36.7471 29.2233 38.0769 27.8935L52.219 42.0356C54.6399 39.6147 56 36.3312 56 32.9075H36ZM38.0769 27.8935C39.4067 26.5637 41.2103 25.8166 43.0909 25.8166V45.8166C46.5146 45.8166 49.7981 44.4565 52.219 42.0356L38.0769 27.8935ZM43.0909 25.8166H41.5462V45.8166H43.0909V25.8166ZM31.6248 34.5655C31.5748 34.9613 31.3822 35.3252 31.0831 35.589L44.3111 50.5896C48.2636 47.1042 50.8083 42.2961 51.4676 37.0677L31.6248 34.5655ZM31.0831 35.589C30.7839 35.8529 30.3987 35.9984 29.9998 35.9984L30.0002 55.9984C35.27 55.9983 40.3586 54.0751 44.3111 50.5896L31.0831 35.589ZM40 45.9984V43.0893H20V45.9984H40ZM30 53.0893C34.9668 53.0893 39.7301 51.1163 43.2422 47.6043L29.1 33.4621C29.3387 33.2234 29.6625 33.0893 30 33.0893V53.0893ZM43.2422 47.6043C46.7542 44.0922 48.7273 39.3288 48.7273 34.3621H28.7273C28.7273 34.0245 28.8614 33.7008 29.1 33.4621L43.2422 47.6043ZM48.7273 34.3621V25.6348H28.7273V34.3621H48.7273ZM48.7273 25.6348C48.7273 20.668 46.7542 15.9047 43.2422 12.3926L29.1 26.5348C28.8614 26.2961 28.7273 25.9723 28.7273 25.6348H48.7273ZM43.2422 12.3926C39.7301 8.88057 34.9668 6.90753 30 6.90753L30 26.9075C29.6625 26.9075 29.3387 26.7734 29.1 26.5348L43.2422 12.3926ZM30 6.90753C25.0332 6.90753 20.2699 8.88057 16.7578 12.3926L30.9 26.5348C30.6613 26.7734 30.3376 26.9075 30 26.9075L30 6.90753ZM16.7578 12.3926C13.2458 15.9047 11.2727 20.668 11.2727 25.6348L31.2727 25.6348C31.2727 25.9723 31.1386 26.2961 30.9 26.5348L16.7578 12.3926ZM11.2727 25.6348V35.8166H31.2727V25.6348H11.2727ZM21.2727 25.8166H16.9091V45.8166H21.2727V25.8166ZM16.9091 25.8166C18.7897 25.8166 20.5933 26.5637 21.9231 27.8935L7.78099 42.0356C10.2019 44.4565 13.4854 45.8166 16.9091 45.8166V25.8166ZM21.9231 27.8935C23.2529 29.2233 24 31.0269 24 32.9075H4C4 36.3312 5.36006 39.6147 7.78099 42.0356L21.9231 27.8935ZM24 32.9075V27.0893H4V32.9075H24ZM24 27.0893C24 28.97 23.2529 30.7736 21.9231 32.1034L7.78099 17.9612C5.36006 20.3822 4 23.6656 4 27.0893H24ZM21.9231 32.1034C20.5933 33.4332 18.7897 34.1803 16.9091 34.1803L16.9091 14.1803C13.4854 14.1803 10.2019 15.5403 7.78099 17.9612L21.9231 32.1034ZM16.9091 34.1803H18.4538V14.1803H16.9091V34.1803ZM28.3751 25.4327C28.425 25.037 28.6177 24.6731 28.9168 24.4093L15.6899 9.4077C11.7375 12.8926 9.19251 17.6999 8.53256 22.9278L28.3751 25.4327ZM28.9168 24.4093C29.216 24.1455 29.6011 24 30 24L30 4C24.7306 4 19.6424 5.92283 15.6899 9.4077L28.9168 24.4093ZM30 24C30.3989 24 30.784 24.1455 31.0832 24.4093L44.3101 9.4077C40.3576 5.92283 35.2694 4 30 4L30 24ZM31.0832 24.4093C31.3823 24.6731 31.575 25.037 31.6249 25.4327L51.4674 22.9278C50.8075 17.6999 48.2625 12.8926 44.3101 9.4077L31.0832 24.4093ZM41.5462 34.1803H43.0909V14.1803H41.5462V34.1803ZM32.3127 40.8039L33.8545 38.337L16.8946 27.737L15.3527 30.2039L32.3127 40.8039ZM20.0658 41.5115C23.048 43.3796 26.4971 44.3677 30.0162 44.3621L29.9838 24.3621C30.2312 24.3617 30.4736 24.4311 30.6832 24.5624L20.0658 41.5115ZM29.9838 44.3621C33.5029 44.3677 36.952 43.3796 39.9342 41.5115L29.3168 24.5624C29.5264 24.4311 29.7688 24.3617 30.0162 24.3621L29.9838 44.3621ZM26.1455 38.337L27.6873 40.8039L44.6473 30.2039L43.1054 27.737L26.1455 38.337ZM30.858 27.0297C30.6055 27.1879 30.3134 27.2716 30.0154 27.2712L29.9846 47.2711C34.0489 47.2774 38.0324 46.1359 41.4765 43.9781L30.858 27.0297ZM29.9846 27.2712C29.6866 27.2716 29.3945 27.1879 29.142 27.0297L18.5235 43.9781C21.9676 46.1359 25.9511 47.2774 30.0154 47.2711L29.9846 27.2712Z" fill="white" mask="url(#path-2-inside-1_2074_1876)"/>
</svg>
